<svg width="207" height="23" viewBox="0 0 207 23" fill="none" xmlns="http://www.w3.org/2000/svg">
<g clip-path="url(#clip0)">
<path d="M73.5304 7.64945V9.71524C73.5303 9.79446 73.5468 9.87293 73.5788 9.94614C73.6109 10.0194 73.6579 10.0859 73.7172 10.1419C73.7765 10.198 73.847 10.2424 73.9245 10.2728C74.002 10.3031 74.0851 10.3187 74.169 10.3187H79.258C79.4246 10.3187 79.5897 10.3496 79.7436 10.4097C79.8976 10.4699 80.0375 10.5581 80.1554 10.6693C80.2732 10.7806 80.3667 10.9126 80.4305 11.058C80.4943 11.2033 80.5271 11.3591 80.5271 11.5165V14.0775C80.5271 14.3953 80.3934 14.7001 80.1554 14.9248C79.9174 15.1495 79.5946 15.2758 79.258 15.2758H74.3553C74.2469 15.2758 74.1396 15.2959 74.0395 15.3351C73.9393 15.3743 73.8484 15.4317 73.7718 15.5041C73.6952 15.5765 73.6344 15.6624 73.593 15.7569C73.5516 15.8515 73.5303 15.9528 73.5304 16.0551V21.0399C73.5304 21.4219 73.3696 21.7882 73.0836 22.0583C72.7975 22.3284 72.4095 22.4801 72.0049 22.4801H69.004C68.5994 22.4801 68.2114 22.3284 67.9253 22.0583C67.6392 21.7882 67.4785 21.4219 67.4785 21.0399V3.8491C67.4785 3.33794 67.6936 2.84771 68.0764 2.48626C68.4592 2.12481 68.9785 1.92175 69.5199 1.92175H80.0628C80.23 1.92169 80.3956 1.95273 80.55 2.0131C80.7045 2.07347 80.8449 2.162 80.9631 2.27361C81.0813 2.38523 81.175 2.51774 81.239 2.66359C81.3029 2.80943 81.3358 2.96574 81.3357 3.12359V5.84516C81.3358 6.003 81.3029 6.15932 81.239 6.30516C81.175 6.451 81.0813 6.58352 80.9631 6.69513C80.8449 6.80675 80.7045 6.89527 80.55 6.95565C80.3956 7.01602 80.23 7.04706 80.0628 7.04699H74.1701C74.0862 7.04686 74.0031 7.06234 73.9255 7.09255C73.8479 7.12276 73.7774 7.16711 73.718 7.22305C73.6586 7.27901 73.6114 7.34546 73.5792 7.41862C73.547 7.49179 73.5304 7.57022 73.5304 7.64945Z" fill="white"/>
<path d="M101.747 7.672V21.285C101.747 21.5977 101.615 21.8977 101.381 22.1188C101.147 22.34 100.829 22.4642 100.498 22.4642H98.1392C97.8826 22.4643 97.6318 22.3926 97.4183 22.2583C97.2049 22.124 97.0383 21.933 96.9395 21.7095L96.7766 21.3429C95.4011 22.3945 93.6589 23.0011 91.7083 23.0011C86.572 23.0011 82.9004 19.4632 82.9004 14.5344C82.9004 9.62242 86.572 6.12561 91.7083 6.12561C93.6866 6.12561 95.4554 6.7496 96.8407 7.82992L97.0943 7.30438C97.1951 7.09535 97.3576 6.91815 97.5622 6.79395C97.7669 6.66975 98.005 6.60381 98.2483 6.60399H100.613C100.762 6.60372 100.909 6.63114 101.047 6.6847C101.184 6.73825 101.309 6.81687 101.415 6.91608C101.52 7.01528 101.603 7.1331 101.66 7.26282C101.717 7.39253 101.747 7.53158 101.747 7.672ZM96.2439 14.5456C96.2439 12.4711 94.6256 10.9171 92.4322 10.9417C90.3034 10.9658 88.6889 12.606 88.7242 14.6164C88.76 16.6519 90.3414 18.163 92.4837 18.163C94.6511 18.163 96.2439 16.6171 96.2439 14.5456Z" fill="white"/>
<path d="M116.72 18.4788V21.6967C116.72 21.7996 116.698 21.9016 116.656 21.9967C116.614 22.0918 116.553 22.1782 116.476 22.251C116.399 22.3238 116.307 22.3815 116.207 22.4208C116.106 22.4601 115.998 22.4802 115.889 22.4801H112.739C109.024 22.4801 106.765 20.3359 106.765 16.8119V11.6108C106.765 11.403 106.678 11.2037 106.522 11.0568C106.367 10.9099 106.156 10.8273 105.935 10.8273H104.52C104.411 10.8274 104.303 10.8072 104.203 10.7679C104.102 10.7285 104.011 10.6709 103.934 10.5982C103.856 10.5255 103.795 10.4391 103.754 10.3441C103.712 10.2491 103.69 10.1472 103.69 10.0444V9.86082C103.691 9.66149 103.771 9.4697 103.916 9.32451L110.972 2.2309C111.049 2.15295 111.143 2.09081 111.247 2.04831C111.351 2.00581 111.463 1.98385 111.577 1.98376C111.686 1.98383 111.794 2.0042 111.894 2.0437C111.995 2.08319 112.087 2.14105 112.164 2.21396C112.241 2.28686 112.302 2.37339 112.343 2.46859C112.385 2.56378 112.406 2.66578 112.406 2.76875V5.83897C112.406 6.04676 112.493 6.24603 112.649 6.39296C112.805 6.53988 113.016 6.62243 113.236 6.62243H115.796C115.905 6.62236 116.013 6.64256 116.114 6.68188C116.215 6.72119 116.306 6.77885 116.383 6.85156C116.46 6.92427 116.521 7.0106 116.563 7.10563C116.605 7.20065 116.626 7.3025 116.626 7.40536V10.0459C116.626 10.1488 116.605 10.2506 116.563 10.3457C116.521 10.4407 116.46 10.527 116.383 10.5997C116.306 10.6724 116.215 10.7301 116.114 10.7694C116.013 10.8087 115.905 10.8289 115.796 10.8289H113.382C113.273 10.8289 113.165 10.8491 113.064 10.8885C112.964 10.9279 112.872 10.9856 112.795 11.0583C112.718 11.1311 112.657 11.2174 112.615 11.3125C112.574 11.4075 112.552 11.5094 112.552 11.6123V15.8762C112.552 17.0119 113.278 17.6969 114.499 17.6969H115.889C116.109 17.6966 116.32 17.7788 116.476 17.9254C116.631 18.072 116.719 18.2711 116.72 18.4788Z" fill="white"/>
<path d="M120.777 0.893677H123.853C124.213 0.894356 124.557 1.0297 124.811 1.27002C125.065 1.51033 125.208 1.83598 125.208 2.1755V21.2008C125.207 21.5399 125.064 21.8649 124.81 22.1046C124.556 22.3444 124.212 22.4794 123.853 22.4801H120.777C120.417 22.4801 120.072 22.3454 119.818 22.1056C119.563 21.8657 119.42 21.5403 119.419 21.2008V2.17294C119.42 1.83342 119.563 1.50804 119.818 1.26821C120.072 1.02837 120.417 0.893676 120.777 0.893677Z" fill="white"/>
<path d="M130.043 6.62036H133.433C133.75 6.62036 134.055 6.73952 134.28 6.95164C134.504 7.16376 134.631 7.45146 134.631 7.75144V21.3485C134.631 21.6485 134.504 21.9362 134.28 22.1483C134.055 22.3604 133.75 22.4796 133.433 22.4796H130.043C129.725 22.4796 129.42 22.3604 129.196 22.1483C128.971 21.9362 128.845 21.6485 128.845 21.3485V7.75144C128.845 7.45146 128.971 7.16376 129.196 6.95164C129.42 6.73952 129.725 6.62036 130.043 6.62036ZM130.087 0H133.388C133.706 0 134.01 0.119167 134.235 0.331286C134.46 0.543404 134.586 0.831099 134.586 1.13108V3.5045C134.586 3.80453 134.46 4.09228 134.235 4.30448C134.01 4.51668 133.706 4.63596 133.388 4.6361H130.087C129.769 4.63596 129.464 4.51668 129.24 4.30448C129.015 4.09228 128.889 3.80453 128.889 3.5045V1.13108C128.889 0.831099 129.015 0.543404 129.24 0.331286C129.464 0.119167 129.769 0 130.087 0V0Z" fill="white"/>
<path d="M154.874 12.8095V21.5859C154.874 21.8232 154.774 22.0507 154.596 22.2185C154.418 22.3863 154.177 22.4806 153.926 22.4806H150.035C149.911 22.4806 149.787 22.4574 149.672 22.4125C149.557 22.3675 149.453 22.3016 149.365 22.2185C149.277 22.1354 149.207 22.0368 149.16 21.9282C149.112 21.8197 149.088 21.7033 149.088 21.5859V13.5642C149.088 11.7184 148.353 10.8027 146.897 10.8027C145.093 10.8027 144.055 11.9927 144.055 14.0108V21.5859C144.055 21.7033 144.03 21.8197 143.983 21.9282C143.935 22.0368 143.866 22.1354 143.778 22.2185C143.69 22.3016 143.585 22.3675 143.47 22.4125C143.355 22.4574 143.232 22.4806 143.108 22.4806H139.217C138.965 22.4806 138.724 22.3863 138.547 22.2185C138.369 22.0507 138.269 21.8232 138.269 21.5859V7.51506C138.269 7.39758 138.294 7.28126 138.341 7.17274C138.389 7.06422 138.459 6.96562 138.547 6.88258C138.635 6.79954 138.739 6.73368 138.854 6.68878C138.969 6.64387 139.092 6.62079 139.217 6.62086H141.721C141.902 6.62082 142.08 6.66994 142.232 6.76238C142.385 6.85482 142.506 6.98668 142.581 7.1423C142.64 7.26369 142.727 7.3711 142.835 7.45663C142.944 7.54217 143.071 7.60365 143.208 7.63656C143.345 7.66947 143.488 7.67297 143.627 7.64679C143.766 7.62062 143.896 7.56544 144.009 7.48532C145.188 6.63829 146.704 6.15222 148.411 6.15222C152.311 6.15273 154.874 8.76765 154.874 12.8095Z" fill="white"/>
<path d="M168.252 21.9643L165.381 17.3882C165.099 16.9385 164.368 17.1272 164.368 17.6502V21.428C164.368 21.707 164.251 21.9746 164.042 22.1719C163.833 22.3692 163.549 22.4801 163.254 22.4801H159.696C159.401 22.4799 159.118 22.369 158.909 22.1717C158.7 21.9744 158.583 21.7069 158.583 21.428V1.94836C158.582 1.81022 158.611 1.67342 158.667 1.54577C158.723 1.41812 158.805 1.30214 158.909 1.20443C159.012 1.10673 159.135 1.02922 159.27 0.976338C159.405 0.923458 159.55 0.89624 159.696 0.89624H163.254C163.549 0.89624 163.833 1.00709 164.042 1.2044C164.251 1.40171 164.368 1.66932 164.368 1.94836V10.7673C164.368 11.3544 165.183 11.5702 165.509 11.0688L168.045 7.13103C168.144 6.97673 168.284 6.8492 168.451 6.76074C168.617 6.67228 168.805 6.62587 168.997 6.62599H172.807C173.008 6.62592 173.205 6.67711 173.377 6.77415C173.55 6.87119 173.691 7.01047 173.787 7.17724C173.882 7.34401 173.929 7.53207 173.92 7.72151C173.912 7.91095 173.849 8.09473 173.739 8.25339L170.032 13.6027C169.913 13.774 169.85 13.9743 169.85 14.179C169.85 14.3837 169.913 14.584 170.032 14.7553L174.268 20.8511C174.378 21.0098 174.441 21.1937 174.449 21.3832C174.458 21.5728 174.412 21.761 174.316 21.928C174.221 22.0949 174.079 22.2344 173.907 22.3316C173.734 22.4288 173.537 22.4801 173.336 22.4801H169.213C169.019 22.4805 168.828 22.4331 168.66 22.3427C168.491 22.2522 168.351 22.1218 168.252 21.9643Z" fill="white"/>
<path d="M193.432 14.4005V14.4149C193.432 15.2096 192.73 15.8464 191.889 15.8464H180.839C181.219 17.6656 182.441 18.6064 184.267 18.6064C185.408 18.6064 186.391 18.208 187.004 17.5261C187.114 17.4003 187.252 17.2987 187.408 17.2285C187.564 17.1582 187.735 17.1211 187.908 17.1195H191.306C192.19 17.1195 192.76 18.0152 192.332 18.7454C190.774 21.4028 187.809 23.001 184.267 23.001C179.026 23.001 175.144 19.3842 175.144 14.541C175.144 9.67878 178.996 6.10352 184.267 6.10352C189.682 6.10352 193.431 9.75056 193.431 14.4025L193.432 14.4005ZM180.941 12.8218H187.732C187.224 11.2364 186.014 10.3812 184.268 10.3812C182.582 10.3812 181.409 11.2462 180.941 12.8218Z" fill="white"/>
<path d="M207 7.50744V10.5838C207 10.8384 206.892 11.0825 206.701 11.2625C206.511 11.4425 206.252 11.5437 205.982 11.5442H204.755C202.707 11.5442 201.849 12.3922 201.849 14.4154V21.5178C201.849 21.773 201.742 22.0178 201.551 22.1983C201.36 22.3788 201.1 22.4801 200.83 22.4801H197.083C196.812 22.4801 196.553 22.3788 196.362 22.1983C196.171 22.0178 196.063 21.773 196.063 21.5178V7.58281C196.063 7.45645 196.09 7.33133 196.141 7.21459C196.192 7.09786 196.267 6.9918 196.362 6.90247C196.457 6.81315 196.569 6.74231 196.693 6.694C196.816 6.64569 196.949 6.62086 197.083 6.62093H199.301C199.492 6.62092 199.68 6.67179 199.842 6.76773C200.004 6.86367 200.134 7.00079 200.218 7.1634L200.241 7.208C200.308 7.33623 200.404 7.44884 200.523 7.53774C200.641 7.62664 200.779 7.68962 200.927 7.72217C201.074 7.75472 201.228 7.75602 201.376 7.72599C201.524 7.69595 201.663 7.63532 201.784 7.54845C202.783 6.85012 203.969 6.54504 205.469 6.54504H205.982C206.252 6.54559 206.511 6.6472 206.702 6.82761C206.893 7.00802 207 7.2525 207 7.50744Z" fill="white"/>
<path d="M29.4528 22.6237H11.7844C5.28505 22.6237 0 17.6338 0 11.5C0 5.36622 5.28505 0.376343 11.7844 0.376343H29.4555C35.9521 0.376343 41.2372 5.36622 41.2372 11.5026C41.2372 17.6389 35.9505 22.6237 29.4528 22.6237ZM11.7844 7.45303C10.6476 7.45303 9.55731 7.87941 8.75346 8.63836C7.94961 9.39731 7.49802 10.4267 7.49802 11.5C7.49802 12.5733 7.94961 13.6027 8.75346 14.3616C9.55731 15.1206 10.6476 15.547 11.7844 15.547H29.4555C30.5923 15.547 31.6826 15.1206 32.4864 14.3616C33.2903 13.6027 33.7419 12.5733 33.7419 11.5C33.7419 10.4267 33.2903 9.39731 32.4864 8.63836C31.6826 7.87941 30.5923 7.45303 29.4555 7.45303H11.7844Z" fill="#FADF4B"/>
<path d="M47.1804 22.6237H29.5092C23.0126 22.6237 17.7275 17.6338 17.7275 11.5C17.7275 5.36622 23.0126 0.376343 29.5092 0.376343H47.1804C53.677 0.376343 58.9648 5.36622 58.9648 11.5026C58.9648 17.6389 53.677 22.6237 47.1804 22.6237ZM29.5092 7.45303C28.3724 7.45303 27.2821 7.87941 26.4783 8.63836C25.6744 9.39731 25.2228 10.4267 25.2228 11.5C25.2228 12.5733 25.6744 13.6027 26.4783 14.3616C27.2821 15.1206 28.3724 15.547 29.5092 15.547H47.1804C48.3172 15.547 49.4074 15.1206 50.2113 14.3616C51.0151 13.6027 51.4667 12.5733 51.4667 11.5C51.4667 10.4267 51.0151 9.39731 50.2113 8.63836C49.4074 7.87941 48.3172 7.45303 47.1804 7.45303H29.5092Z" fill="#8F00FF"/>
<g style="mix-blend-mode:soft-light">
<g style="mix-blend-mode:soft-light">
<g style="mix-blend-mode:soft-light">
<path d="M29.4528 22.6237H11.7844C5.28505 22.6237 0 17.6338 0 11.5C0 5.36622 5.28505 0.376343 11.7844 0.376343H29.4555C35.9521 0.376343 41.2372 5.36622 41.2372 11.5026C41.2372 17.6389 35.9505 22.6237 29.4528 22.6237ZM11.7844 7.45303C10.6476 7.45303 9.55731 7.87941 8.75346 8.63836C7.94961 9.39731 7.49802 10.4267 7.49802 11.5C7.49802 12.5733 7.94961 13.6027 8.75346 14.3616C9.55731 15.1206 10.6476 15.547 11.7844 15.547H29.4555C30.5923 15.547 31.6826 15.1206 32.4864 14.3616C33.2903 13.6027 33.7419 12.5733 33.7419 11.5C33.7419 10.4267 33.2903 9.39731 32.4864 8.63836C31.6826 7.87941 30.5923 7.45303 29.4555 7.45303H11.7844Z" fill="#FAD81E"/>
</g>
</g>
</g>
</g>
<defs>
<clipPath id="clip0">
<rect width="207" height="23" fill="white"/>
</clipPath>
</defs>
</svg>
